<svg xmlns:xlink="http://www.w3.org/1999/xlink" xmlns="http://www.w3.org/2000/svg" viewBox="0 0 389.66666666666663 92.03230910258016" preserveAspectRatio="xMidYMid meet" class="css-18azjue" id="cbgebbhf" width="389.66666666666663"  height="92.03230910258016" ><defs id="SvgjsDefs1021"></defs><g id="SvgjsG1022" featurekey="v37d4h-0" transform="matrix(0.9259170564472866,0,0,0.9259170564472866,15.371324673290557,9.716764337522426)" fill="#FC4C69"><path xmlns="http://www.w3.org/2000/svg" d="M94.97,24.478c-0.215-0.903-1.525-1.378-2.983-1.082c0,0-18.15,3.838-18.583,4.174c0,0-17.558,0.026-17.756,0.065  c-3.733,0.677-8.791,0.514-11.795-0.01c0,0-16.695-3.186-16.761-3.194c-0.489-0.408-19.221-2.542-19.221-2.542  c-1.48-0.15-2.737,0.452-2.862,1.372c-0.121,0.894,0.871,1.788,2.287,2.063c0,0,18.269,3.851,18.705,3.995l14.535,4.819  c-2.58,7.137-4.785,15.331-4.427,22.006l-19.493,1.065c-2.614,0.143-3.924,2.267-3.68,4.554c0.608,5.693-2.213,22.795-2.213,22.795  c-0.16,1.646,0.993,3.105,2.576,3.258c1.534,0.149,2.918-0.655,3.139-2.243L19.212,66h19.402c0.425,0,11.052,0.107,11.56,0.372  L70.85,77.06c0.222,0.116,17.119,11.3,17.119,11.3c0.874,0.573,1.942,0.692,2.85,0.354c2.115-0.786,2.319-3.609,0.367-5.061  c0,0-16.046-12.471-16.672-12.887c0,0-18.947-12.469-19.355-12.528c-3.817-5.728-2.588-12.607,1.012-23.422  c0.255,0.032,17.717-2.224,17.717-2.224c0.645-0.085,19.009-5.836,19.009-5.836C94.28,26.343,95.178,25.355,94.97,24.478z" fill="#FC4C69"></path><circle xmlns="http://www.w3.org/2000/svg" cx="47.901" cy="17.797" r="6.691" fill="#FC4C69"></circle></g><g id="SvgjsG1023" featurekey="UxBHKT-0" transform="matrix(3.4118046849061505,0,0,3.4118046849061505,120.06584812553386,14.237462746183645)" fill="#65605F"><path d="M9.72 18.9 q-0.38 0.52 -1.31 0.93 t-2.03 0.41 q-1.7 0 -2.95 -0.76 t-1.91 -2.07 t-0.66 -2.91 t0.66 -2.91 t1.91 -2.07 t2.95 -0.76 q1.14 0 2.01 0.39 t1.33 0.99 l0 -1.14 l2.96 0 l0 11 l-2.96 0 l0 -1.1 z M9.02 12.25 q-0.82 -0.87 -2.2 -0.87 q-1.4 0 -2.21 0.87 t-0.81 2.25 q0 1.34 0.83 2.22 t2.19 0.88 q1.4 0 2.21 -0.83 t0.81 -2.27 q0 -1.38 -0.82 -2.25 z M18.12 19.51 q-1.38 -0.77 -2.19 -2.09 t-0.81 -2.88 t0.81 -2.87 t2.18 -2.08 t2.99 -0.77 q1.74 0 3.15 0.83 t2.25 2.37 l-2.7 1.06 q-0.48 -0.82 -1.18 -1.23 t-1.52 -0.41 q-1.3 0 -2.15 0.88 t-0.85 2.22 t0.86 2.22 t2.16 0.88 q1.8 0 2.78 -1.6 l2.54 1 q-1.58 3.24 -5.32 3.24 q-1.62 0 -3 -0.77 z M32.339999999999996 16.08 q0 0.7 0.24 1.17 t1.12 0.47 q0.4 0 0.76 -0.04 l0 2.52 q-0.72 0.08 -1.34 0.08 q-1.28 0 -2.07 -0.21 t-1.23 -0.81 t-0.44 -1.72 l0 -6.1 l-1.34 0 l0 -2.62 l1.34 0 l0 -2.94 l2.96 0 l0 2.94 l2.2 0 l0 2.62 l-2.2 0 l0 4.64 z M39.63999999999999 7.369999999999999 q-0.48 0.47 -1.16 0.47 q-0.7 0 -1.19 -0.47 t-0.49 -1.15 q0 -0.66 0.49 -1.13 t1.19 -0.47 q0.68 0 1.16 0.47 t0.48 1.13 q0 0.68 -0.48 1.15 z M36.98 9.02 l3 0 l0 10.98 l-3 0 l0 -10.98 z M42.94 20 l0 -15.12 l2.96 0 l0 5.26 q0.46 -0.6 1.33 -0.99 t2.01 -0.39 q1.7 0 2.95 0.76 t1.91 2.07 t0.66 2.91 t-0.66 2.91 t-1.91 2.07 t-2.95 0.76 q-1.1 0 -2.03 -0.41 t-1.31 -0.93 l0 1.1 l-2.96 0 z M46.589999999999996 16.77 q0.81 0.83 2.21 0.83 q1.36 0 2.19 -0.88 t0.83 -2.22 q0 -1.38 -0.81 -2.25 t-2.21 -0.87 q-1.38 0 -2.2 0.87 t-0.82 2.25 q0 1.44 0.81 2.27 z M59.10999999999999 19.69 q-0.49 0.47 -1.17 0.47 t-1.16 -0.47 t-0.48 -1.13 q0 -0.64 0.48 -1.12 t1.16 -0.48 t1.17 0.48 t0.49 1.12 q0 0.66 -0.49 1.13 z M69.82 18.9 q-0.38 0.52 -1.31 0.93 t-2.03 0.41 q-1.7 0 -2.95 -0.76 t-1.91 -2.07 t-0.66 -2.91 t0.66 -2.91 t1.91 -2.07 t2.95 -0.76 q1.14 0 2.01 0.39 t1.33 0.99 l0 -1.14 l2.96 0 l0 11 l-2.96 0 l0 -1.1 z M69.11999999999999 12.25 q-0.82 -0.87 -2.2 -0.87 q-1.4 0 -2.21 0.87 t-0.81 2.25 q0 1.34 0.83 2.22 t2.19 0.88 q1.4 0 2.21 -0.83 t0.81 -2.27 q0 -1.38 -0.82 -2.25 z M78.53999999999999 7.369999999999999 q-0.48 0.47 -1.16 0.47 q-0.7 0 -1.19 -0.47 t-0.49 -1.15 q0 -0.66 0.49 -1.13 t1.19 -0.47 q0.68 0 1.16 0.47 t0.48 1.13 q0 0.68 -0.48 1.15 z M75.88 9.02 l3 0 l0 10.98 l-3 0 l0 -10.98 z" fill="#65605F"></path></g></svg>